# xmcd
#
# Track frame offsets:
#	150
#	24747
#	37770
#	58262
#	79195
#	110190
#	137282
#	171275
#	187662
#	204892
#	222007
#	241162
#	262845
#	284217
#
# Disc length: 4407
#
# Revision: 5
# Processed by: cddbd v1.5.1PL0 Copyright (c) Steve Scherf et al.
# Submitted via: AudioBrowser/FreeDBQuery 0.90.725
# Normalized: r4:DSETVAR1
#
DISCID=bf11350e
DTITLE=Various Artist - RCD Magazine: Classic Rock Collection Vol 12
DYEAR=1900
DGENRE=Rock
TTITLE0=Björk - One Day
TTITLE1=Golden Dawn - Starvation
TTITLE2=Iggy Pop - TV Eye
TTITLE3=Milltown Brothers - Cool Breeze
TTITLE4=Jr Kimbrough - Jr Blues
TTITLE5=Slowdive - Souvlaki Space Station
TTITLE6=Moonflowers - Smile In The Face Of Evil And Dance
TTITLE7=Raging Slab - Pearly
TTITLE8=Lost Soul Band - The Last Train
TTITLE9=Roy Rogers - Bad Situation
TTITLE10=Anthony Thistlethwaite - Jenny
TTITLE11=Ozric Tentacles - Vita Voom
TTITLE12=Dodgy - Grand Old English Oak Tree
TTITLE13=Porcupine Tree - Up The Down Stairs
EXTD=
EXTT0=
EXTT1=
EXTT2=
EXTT3=
EXTT4=
EXTT5=
EXTT6=
EXTT7=
EXTT8=
EXTT9=
EXTT10=
EXTT11=
EXTT12=
EXTT13=
PLAYORDER=
